<svg width="1003" height="540" viewBox="0 0 1003 540" fill="none" xmlns="http://www.w3.org/2000/svg">
<rect x="147.053" width="855.804" height="540" fill="#F5ECD6"/>
<rect x="147.053" width="855.804" height="540" fill="url(#paint0_linear)"/>
<rect x="639.429" y="244" width="292" height="52" fill="#333333"/>
<rect x="356.786" y="243.482" width="313.393" height="53.0357" fill="#333333"/>
<rect x="356.786" y="243.482" width="313.393" height="53.0357" fill="url(#paint1_linear)"/>
<g opacity="0.8">
<rect x="826.875" y="318.214" width="104" height="124" fill="#C9E5DB"/>
<rect x="513.482" y="318.214" width="104" height="124" fill="#C9E5DB"/>
<rect x="670.179" y="318.214" width="104" height="124" fill="#C9E5DB"/>
<rect x="356.786" y="318.214" width="104" height="124" fill="#C9E5DB"/>
</g>
<rect x="60.2678" y="243.482" width="296.518" height="296.518" fill="#F7EED8"/>
<rect x="60.2678" y="243.482" width="296.518" height="296.518" fill="url(#paint2_linear)"/>
<path d="M356.786 540V481.187C248.618 481.187 65.496 365.407 25.3125 243.482L0 243.482V540H356.786Z" fill="#F7EED8"/>
<path d="M356.786 540V481.187C248.618 481.187 65.496 365.407 25.3125 243.482L0 243.482V540H356.786Z" fill="url(#paint3_linear)"/>
<rect x="262" y="253.125" width="20.0804" height="83.6161" fill="#BC2C23"/>
<rect x="290.112" y="253.125" width="32.1286" height="16.7232" fill="#BC2C23"/>
<rect x="282.08" y="286.572" width="40.1607" height="16.7232" fill="#BC2C23"/>
<rect x="322.241" y="320.018" width="20.0804" height="16.7232" fill="#BC2C23"/>
<g opacity="0.8">
<rect x="200.089" y="77.1428" width="104" height="124" fill="#C9E5DB"/>
<rect x="356.786" y="77.1428" width="104" height="124" fill="#C9E5DB"/>
<rect x="826.875" y="77.1428" width="104" height="124" fill="#C9E5DB"/>
<rect x="513.482" y="77.1428" width="104" height="124" fill="#C9E5DB"/>
<rect x="670.179" y="77.1428" width="104" height="124" fill="#C9E5DB"/>
</g>
<rect x="147.053" width="855.804" height="36.1607" fill="#C9E5DB"/>
<defs>
<linearGradient id="paint0_linear" x1="147.429" y1="3.16894e-05" x2="1003.43" y2="540" gradientUnits="userSpaceOnUse">
<stop stop-opacity="0.03"/>
<stop offset="1" stop-opacity="0"/>
</linearGradient>
<linearGradient id="paint1_linear" x1="356.786" y1="296.518" x2="670.179" y2="296.518" gradientUnits="userSpaceOnUse">
<stop stop-color="white" stop-opacity="0.15"/>
<stop offset="1" stop-color="white" stop-opacity="0"/>
</linearGradient>
<linearGradient id="paint2_linear" x1="60.2678" y1="540" x2="356.786" y2="392.946" gradientUnits="userSpaceOnUse">
<stop stop-opacity="0"/>
<stop offset="1" stop-opacity="0.05"/>
</linearGradient>
<linearGradient id="paint3_linear" x1="0" y1="540" x2="356.786" y2="540" gradientUnits="userSpaceOnUse">
<stop stop-opacity="0.03"/>
<stop offset="1" stop-opacity="0"/>
</linearGradient>
</defs>
</svg>
